<svg xmlns="http://www.w3.org/2000/svg" viewBox="0 0 600 600" width="600" height="600">
  <defs>
    <linearGradient id="g" x1="0" y1="0" x2="1" y2="1">
      <stop offset="0%" stop-color="#E86FA6"/><stop offset="100%" stop-color="#8E2A5C"/>
    </linearGradient>
    <linearGradient id="cap" x1="0" y1="0" x2="0" y2="1">
      <stop offset="0%" stop-color="#8E2A5C"/><stop offset="100%" stop-color="#E86FA6"/>
    </linearGradient>
  </defs>
  <rect width="600" height="600" fill="#F7F8F9"/>
  <ellipse cx="300" cy="492" rx="150" ry="20" fill="#0D3620" opacity=".07"/>
  <path d="M232 150h108c14 0 24 10 24 24v34H232c-14 0-24-10-24-24v-10c0-14 10-24 24-24Z" fill="url(#cap)"/>
  <rect x="150" y="162" width="62" height="20" rx="10" fill="url(#cap)"/>
  <rect x="278" y="208" width="46" height="30" fill="url(#g)"/>
  <path d="M214 286c0-27 22-49 49-49h76c27 0 49 22 49 49v152c0 25-20 45-45 45H259c-25 0-45-20-45-45V286Z" fill="url(#g)"/>
  <rect x="228" y="322" width="146" height="104" rx="10" fill="#fff" opacity=".92"/>
  <rect x="244" y="342" width="114" height="12" rx="6" fill="#C9CED3"/>
  <rect x="244" y="366" width="80" height="10" rx="5" fill="#DDE1E4"/>
  <rect x="244" y="388" width="96" height="10" rx="5" fill="#DDE1E4"/>
  <rect x="232" y="272" width="18" height="196" rx="9" fill="#fff" opacity=".26"/>
  <text x="300" y="552" text-anchor="middle" font-family="Inter, Arial, sans-serif" font-size="26" font-weight="700" fill="#9AA1A9">Освежитель</text>
</svg>
